<svg width="732" height="647" viewBox="0 0 732 647" fill="none" xmlns="http://www.w3.org/2000/svg">
<g filter="url(#filter0_di_53_252)">
<path d="M29.2882 -89H66.7068V670.063H29.2882V-89Z" fill="#D9D9D9" fill-opacity="0.01" shape-rendering="crispEdges"/>
<path d="M157.581 -89H216.381C295.539 216.659 291.36 382.372 216.381 670.063H157.581C229.181 375.395 231.708 209.259 157.581 -89Z" fill="#D9D9D9" fill-opacity="0.01" shape-rendering="crispEdges"/>
<path d="M317.946 -89L376.747 -89C526.02 214.843 520.692 380.593 376.747 670.063H317.946C460.047 391.72 460.985 225.198 317.946 -89Z" fill="#D9D9D9" fill-opacity="0.01" shape-rendering="crispEdges"/>
<path d="M462.275 -89H559.31C754.215 222.112 745.117 387.641 559.31 670.063H462.275C666.554 371.759 668.112 205.731 462.275 -89Z" fill="#D9D9D9" fill-opacity="0.01" shape-rendering="crispEdges"/>
</g>
<defs>
<filter id="filter0_di_53_252" x="1.90735e-05" y="-89" width="731.385" height="817.639" filterUnits="userSpaceOnUse" color-interpolation-filters="sRGB">
<feFlood flood-opacity="0" result="BackgroundImageFix"/>
<feColorMatrix in="SourceAlpha" type="matrix" values="0 0 0 0 0 0 0 0 0 0 0 0 0 0 0 0 0 0 127 0" result="hardAlpha"/>
<feOffset dy="29.2882"/>
<feGaussianBlur stdDeviation="14.6441"/>
<feComposite in2="hardAlpha" operator="out"/>
<feColorMatrix type="matrix" values="0 0 0 0 0 0 0 0 0 0 0 0 0 0 0 0 0 0 0.25 0"/>
<feBlend mode="normal" in2="BackgroundImageFix" result="effect1_dropShadow_53_252"/>
<feBlend mode="normal" in="SourceGraphic" in2="effect1_dropShadow_53_252" result="shape"/>
<feColorMatrix in="SourceAlpha" type="matrix" values="0 0 0 0 0 0 0 0 0 0 0 0 0 0 0 0 0 0 127 0" result="hardAlpha"/>
<feOffset dy="5.85764"/>
<feGaussianBlur stdDeviation="14.6441"/>
<feComposite in2="hardAlpha" operator="arithmetic" k2="-1" k3="1"/>
<feColorMatrix type="matrix" values="0 0 0 0 0 0 0 0 0 0 0 0 0 0 0 0 0 0 0.25 0"/>
<feBlend mode="normal" in2="shape" result="effect2_innerShadow_53_252"/>
</filter>
</defs>
</svg>
