<svg width="242" height="275" viewBox="0 0 242 275" fill="none" xmlns="http://www.w3.org/2000/svg">
<path d="M13.0586 275H0.799869L0 0H12.2458L13.0586 275Z" fill="#F2FDFF"/>
<path d="M65.8086 275H43.6098C73.4629 180.59 73.2436 88.9273 43.3904 0H65.5764C91.2238 93.1718 92.1785 184.886 65.8215 275H65.8086Z" fill="#F2FDFF"/>
<path d="M124.483 275H98.346C150.428 183.338 150.634 91.6624 98.9008 0H125.231C176.255 91.6624 176.01 183.338 124.47 275H124.483Z" fill="#F2FDFF"/>
<path d="M189.62 275H152.323C226.208 179.338 226.931 87.663 154.168 0H191.336C258.37 82.0252 257.815 173.688 189.633 275H189.62Z" fill="#F2FDFF"/>
</svg>
