<svg width="29" height="33" viewBox="0 0 29 33" fill="none" xmlns="http://www.w3.org/2000/svg">
<path d="M1.56512 32.9596H0.0958669L0 0H1.4677L1.56512 32.9596Z" fill="#020FEA"/>
<path d="M7.88757 32.9596H5.22697C8.80497 21.6443 8.77868 10.6582 5.20068 0H7.85974C10.9337 11.1669 11.0481 22.1592 7.88912 32.9596H7.88757Z" fill="#020FEA"/>
<path d="M14.9197 32.9596H11.7871C18.0293 21.9736 18.054 10.986 11.8536 0H15.0094C21.1247 10.986 21.0954 21.9736 14.9181 32.9596H14.9197Z" fill="#020FEA"/>
<path d="M22.7264 32.9596H18.2563C27.1117 21.4943 27.1983 10.5067 18.4775 0H22.9321C30.9663 9.83099 30.8998 20.817 22.728 32.9596H22.7264Z" fill="#020FEA"/>
</svg>
